<svg width="90" height="18" viewBox="0 0 90 18" fill="none" xmlns="http://www.w3.org/2000/svg">
<path d="M1.95481 7.07184L4.94539 10.5276L4.94543 15.0977L9.15618 13.3214L13.5026 14.7335L13.1144 10.18L15.8006 6.48267L11.3499 5.44473L8.66368 1.74747L6.30121 5.65957L1.95481 7.07184Z" fill="url(#paint0_linear)"/>
<path d="M19.9016 7.01862L22.8922 10.4744L22.8923 15.0445L27.103 13.2681L31.4494 14.6803L31.0612 10.1268L33.7474 6.42944L29.2968 5.39151L26.6105 1.69425L24.248 5.60634L19.9016 7.01862Z" fill="#C4C4C4"/>
<path d="M55.7953 7.01862L58.7859 10.4744L58.7859 15.0445L62.9967 13.2681L67.3431 14.6803L66.9549 10.1268L69.6411 6.42944L65.1905 5.39151L62.5042 1.69425L60.1417 5.60634L55.7953 7.01862Z" fill="#C4C4C4"/>
<path d="M37.8485 7.01862L40.8391 10.4744L40.8391 15.0445L45.0499 13.2681L49.3963 14.6803L49.0081 10.1268L51.6943 6.42944L47.2436 5.39151L44.5574 1.69425L42.1949 5.60634L37.8485 7.01862Z" fill="#C4C4C4"/>
<path d="M73.7422 7.01862L76.7327 10.4744L76.7328 15.0445L80.9435 13.2681L85.29 14.6803L84.9018 10.1268L87.588 6.42944L83.1373 5.39151L80.451 1.69425L78.0886 5.60634L73.7422 7.01862Z" fill="#C4C4C4"/>
<defs>
<linearGradient id="paint0_linear" x1="3.90961" y1="0.0532227" x2="14.0372" y2="18.0001" gradientUnits="userSpaceOnUse">
<stop stop-color="#FDEB71"/>
<stop offset="1" stop-color="#F8D800"/>
</linearGradient>
</defs>
</svg>
