<svg width="90" height="19" viewBox="0 0 90 19" fill="none" xmlns="http://www.w3.org/2000/svg">
<path d="M1.95481 7.57184L4.94539 11.0276L4.94543 15.5977L9.15618 13.8214L13.5026 15.2335L13.1144 10.68L15.8006 6.98267L11.3499 5.94473L8.66368 2.24747L6.30121 6.15957L1.95481 7.57184Z" fill="url(#paint0_linear)"/>
<path d="M19.9016 7.51862L22.8922 10.9744L22.8923 15.5445L27.103 13.7681L31.4494 15.1803L31.0612 10.6268L33.7474 6.92944L29.2968 5.89151L26.6105 2.19425L24.248 6.10634L19.9016 7.51862Z" fill="url(#paint1_linear)"/>
<path d="M55.7953 7.51862L58.7859 10.9744L58.7859 15.5445L62.9967 13.7681L67.3431 15.1803L66.9549 10.6268L69.6411 6.92944L65.1905 5.89151L62.5042 2.19425L60.1417 6.10634L55.7953 7.51862Z" fill="url(#paint2_linear)"/>
<path d="M37.8485 7.51862L40.8391 10.9744L40.8391 15.5445L45.0499 13.7681L49.3963 15.1803L49.0081 10.6268L51.6943 6.92944L47.2436 5.89151L44.5574 2.19425L42.1949 6.10634L37.8485 7.51862Z" fill="url(#paint3_linear)"/>
<path d="M73.7422 7.51862L76.7327 10.9744L76.7328 15.5445L80.9435 13.7681L85.29 15.1803L84.9018 10.6268L87.588 6.92944L83.1373 5.89151L80.451 2.19425L78.0886 6.10634L73.7422 7.51862Z" fill="#C4C4C4"/>
<defs>
<linearGradient id="paint0_linear" x1="3.90961" y1="0.553223" x2="14.0372" y2="18.5001" gradientUnits="userSpaceOnUse">
<stop stop-color="#FDEB71"/>
<stop offset="1" stop-color="#F8D800"/>
</linearGradient>
<linearGradient id="paint1_linear" x1="21.8564" y1="0.5" x2="31.9841" y2="18.4468" gradientUnits="userSpaceOnUse">
<stop stop-color="#FDEB71"/>
<stop offset="1" stop-color="#F8D800"/>
</linearGradient>
<linearGradient id="paint2_linear" x1="57.7501" y1="0.5" x2="67.8778" y2="18.4468" gradientUnits="userSpaceOnUse">
<stop stop-color="#FDEB71"/>
<stop offset="1" stop-color="#F8D800"/>
</linearGradient>
<linearGradient id="paint3_linear" x1="39.8033" y1="0.5" x2="49.9309" y2="18.4468" gradientUnits="userSpaceOnUse">
<stop stop-color="#FDEB71"/>
<stop offset="1" stop-color="#F8D800"/>
</linearGradient>
</defs>
</svg>
