<svg width="146" height="86" viewBox="0 0 146 86" fill="none" xmlns="http://www.w3.org/2000/svg">
<path opacity="0.2" d="M145.783 46.1148C142.966 74.4756 127.379 82.0939 98.6488 85.6916C69.9188 89.2894 55.1893 60.5064 51.5146 46.1148C47.8399 31.7231 64.0423 2.93985 93.8192 0.241475C123.596 -2.4569 148.6 17.754 145.783 46.1148Z" fill="url(#paint0_linear)"/>
<path d="M7.812 33.824V41.636C7.812 41.828 7.92 41.924 8.136 41.924H9.936C14.208 41.924 16.344 40.4 16.344 37.352C16.344 34.64 14.364 33.284 10.404 33.284C9.684 33.284 8.928 33.344 8.136 33.464C7.92 33.512 7.812 33.632 7.812 33.824ZM4.896 56C4.344 56 3.864 55.796 3.456 55.388C3.048 54.98 2.844 54.5 2.844 53.948V31.952C2.844 31.376 3.036 30.86 3.42 30.404C3.804 29.948 4.284 29.696 4.86 29.648C6.9 29.456 8.868 29.36 10.764 29.36C14.292 29.36 16.932 30.02 18.684 31.34C20.436 32.636 21.312 34.472 21.312 36.848C21.312 38.552 20.844 40.052 19.908 41.348C18.996 42.644 17.76 43.556 16.2 44.084C16.176 44.084 16.164 44.096 16.164 44.12C16.164 44.168 16.176 44.192 16.2 44.192C17.352 44.912 18.336 46.328 19.152 48.44L21.312 54.092C21.48 54.548 21.42 54.98 21.132 55.388C20.868 55.796 20.496 56 20.016 56H18.9C18.276 56 17.712 55.832 17.208 55.496C16.704 55.136 16.344 54.668 16.128 54.092L14.112 48.548C13.68 47.396 13.188 46.64 12.636 46.28C12.084 45.92 11.136 45.74 9.792 45.74H8.136C7.92 45.74 7.812 45.848 7.812 46.064V53.948C7.812 54.5 7.608 54.98 7.2 55.388C6.816 55.796 6.348 56 5.796 56H4.896ZM32.2293 40.268C31.0053 40.268 30.0573 40.616 29.3853 41.312C28.7373 41.984 28.3293 43.076 28.1613 44.588C28.1613 44.78 28.2573 44.876 28.4493 44.876H35.5053C35.6973 44.876 35.7933 44.78 35.7933 44.588C35.6973 41.708 34.5093 40.268 32.2293 40.268ZM33.1293 56.36C29.9853 56.36 27.5613 55.544 25.8573 53.912C24.1773 52.256 23.3373 49.832 23.3373 46.64C23.3373 43.472 24.0933 41.06 25.6053 39.404C27.1173 37.748 29.3013 36.92 32.1573 36.92C37.4853 36.92 40.2213 39.944 40.3653 45.992C40.3893 46.568 40.1853 47.048 39.7533 47.432C39.3213 47.816 38.8173 48.008 38.2413 48.008H28.4133C28.1973 48.008 28.1133 48.116 28.1613 48.332C28.3293 49.94 28.8573 51.116 29.7453 51.86C30.6573 52.58 31.9773 52.94 33.7053 52.94C34.7853 52.94 35.9853 52.76 37.3053 52.4C37.7373 52.28 38.1333 52.352 38.4933 52.616C38.8773 52.88 39.0693 53.24 39.0693 53.696C39.0693 54.248 38.9013 54.74 38.5653 55.172C38.2533 55.58 37.8333 55.832 37.3053 55.928C35.9613 56.216 34.5693 56.36 33.1293 56.36ZM53.0696 47C49.6376 47 47.9216 48.056 47.9216 50.168C47.9216 50.936 48.1376 51.56 48.5696 52.04C49.0256 52.52 49.6016 52.76 50.2976 52.76C51.6656 52.76 52.7696 52.34 53.6096 51.5C54.4496 50.636 54.8696 49.46 54.8696 47.972V47.324C54.8696 47.108 54.7616 47 54.5456 47H53.0696ZM49.0016 56.36C47.3696 56.36 46.0136 55.832 44.9336 54.776C43.8776 53.696 43.3496 52.304 43.3496 50.6C43.3496 48.512 44.1416 46.892 45.7256 45.74C47.3336 44.588 49.7816 44.012 53.0696 44.012H54.5456C54.7616 44.012 54.8696 43.904 54.8696 43.688V43.4C54.8696 42.296 54.6056 41.528 54.0776 41.096C53.5496 40.64 52.6136 40.412 51.2696 40.412C49.8776 40.412 48.1736 40.664 46.1576 41.168C45.7256 41.288 45.3296 41.216 44.9696 40.952C44.6096 40.664 44.4296 40.292 44.4296 39.836C44.4296 39.284 44.5976 38.792 44.9336 38.36C45.2696 37.904 45.7016 37.628 46.2296 37.532C48.0536 37.124 49.7696 36.92 51.3776 36.92C54.4496 36.92 56.5976 37.472 57.8216 38.576C59.0456 39.68 59.6576 41.612 59.6576 44.372V53.948C59.6576 54.5 59.4536 54.98 59.0456 55.388C58.6616 55.796 58.1936 56 57.6416 56H57.2456C56.6696 56 56.1776 55.808 55.7696 55.424C55.3616 55.016 55.1456 54.524 55.1216 53.948V53.444C55.1216 53.42 55.1096 53.408 55.0856 53.408C55.0376 53.408 55.0136 53.42 55.0136 53.444C53.5496 55.388 51.5456 56.36 49.0016 56.36ZM72.2413 40.52C69.4813 40.52 68.1013 42.56 68.1013 46.64C68.1013 48.68 68.4733 50.216 69.2173 51.248C69.9613 52.256 70.9693 52.76 72.2413 52.76C73.3693 52.76 74.3413 52.388 75.1573 51.644C75.9733 50.9 76.3813 50.048 76.3813 49.088V44.192C76.3813 43.232 75.9733 42.38 75.1573 41.636C74.3413 40.892 73.3693 40.52 72.2413 40.52ZM70.8013 56.36C68.6653 56.36 66.8893 55.496 65.4733 53.768C64.0573 52.016 63.3493 49.64 63.3493 46.64C63.3493 43.544 64.0213 41.156 65.3653 39.476C66.7333 37.772 68.5453 36.92 70.8013 36.92C72.8413 36.92 74.6413 37.664 76.2013 39.152C76.2253 39.176 76.2493 39.188 76.2733 39.188C76.2973 39.188 76.3093 39.176 76.3093 39.152V31.052C76.3093 30.5 76.5133 30.02 76.9213 29.612C77.3293 29.204 77.8093 29 78.3613 29H79.0813C79.6333 29 80.1133 29.204 80.5213 29.612C80.9293 30.02 81.1333 30.5 81.1333 31.052V53.948C81.1333 54.5 80.9293 54.98 80.5213 55.388C80.1133 55.796 79.6333 56 79.0813 56H78.6853C78.1093 56 77.6173 55.808 77.2093 55.424C76.8253 55.016 76.6213 54.524 76.5973 53.948L76.5613 53.696C76.5613 53.672 76.5493 53.66 76.5253 53.66C76.5013 53.66 76.4773 53.672 76.4533 53.696C74.8693 55.472 72.9853 56.36 70.8013 56.36ZM89.4285 56C88.8765 56 88.3965 55.796 87.9885 55.388C87.5805 54.98 87.3765 54.5 87.3765 53.948V39.332C87.3765 38.78 87.5805 38.3 87.9885 37.892C88.3965 37.484 88.8765 37.28 89.4285 37.28H90.3645C90.9165 37.28 91.3965 37.484 91.8045 37.892C92.2125 38.3 92.4165 38.78 92.4165 39.332V53.948C92.4165 54.5 92.2125 54.98 91.8045 55.388C91.3965 55.796 90.9165 56 90.3645 56H89.4285ZM89.4285 33.32C88.8765 33.32 88.3965 33.116 87.9885 32.708C87.5805 32.3 87.3765 31.82 87.3765 31.268V31.052C87.3765 30.5 87.5805 30.02 87.9885 29.612C88.3965 29.204 88.8765 29 89.4285 29H90.3645C90.9165 29 91.3965 29.204 91.8045 29.612C92.2125 30.02 92.4165 30.5 92.4165 31.052V31.268C92.4165 31.82 92.2125 32.3 91.8045 32.708C91.3965 33.116 90.9165 33.32 90.3645 33.32H89.4285ZM106.093 40.268C104.869 40.268 103.921 40.616 103.249 41.312C102.601 41.984 102.193 43.076 102.025 44.588C102.025 44.78 102.121 44.876 102.313 44.876H109.369C109.561 44.876 109.657 44.78 109.657 44.588C109.561 41.708 108.373 40.268 106.093 40.268ZM106.993 56.36C103.849 56.36 101.425 55.544 99.7206 53.912C98.0406 52.256 97.2006 49.832 97.2006 46.64C97.2006 43.472 97.9566 41.06 99.4686 39.404C100.981 37.748 103.165 36.92 106.021 36.92C111.349 36.92 114.085 39.944 114.229 45.992C114.253 46.568 114.049 47.048 113.617 47.432C113.185 47.816 112.681 48.008 112.105 48.008H102.277C102.061 48.008 101.977 48.116 102.025 48.332C102.193 49.94 102.721 51.116 103.609 51.86C104.521 52.58 105.841 52.94 107.569 52.94C108.649 52.94 109.849 52.76 111.169 52.4C111.601 52.28 111.997 52.352 112.357 52.616C112.741 52.88 112.933 53.24 112.933 53.696C112.933 54.248 112.765 54.74 112.429 55.172C112.117 55.58 111.697 55.832 111.169 55.928C109.825 56.216 108.433 56.36 106.993 56.36Z" fill="url(#paint1_linear)"/>
<defs>
<linearGradient id="paint0_linear" x1="51" y1="0" x2="136.576" y2="94.5314" gradientUnits="userSpaceOnUse">
<stop stop-color="#81FFEF"/>
<stop offset="1" stop-color="#F067B4"/>
</linearGradient>
<linearGradient id="paint1_linear" x1="0" y1="16" x2="40.0669" y2="103.694" gradientUnits="userSpaceOnUse">
<stop stop-color="#FFF6B7"/>
<stop offset="1" stop-color="#F6416C"/>
</linearGradient>
</defs>
</svg>
