<svg width="26" height="26" viewBox="0 0 26 26" fill="none" xmlns="http://www.w3.org/2000/svg">
<path d="M20.9808 15.2422C20.2642 15.2342 19.4053 15.2971 18.4724 15.4305C18.0453 15.1849 17.594 14.9158 17.2368 14.5818C16.3304 13.7355 15.5706 12.5597 15.0992 11.2422C15.1314 11.1161 15.1625 10.9929 15.1906 10.8682C15.3217 10.2785 15.4157 8.32964 15.4157 8.32964C15.4157 8.32964 15.043 9.79375 14.9842 10.0146C14.9467 10.1548 14.8992 10.3043 14.8452 10.46C14.5593 9.45454 14.4138 8.47919 14.4138 7.74026C14.4138 7.53111 14.4316 7.12535 14.4909 6.80392C14.5197 6.57469 14.6034 6.4555 14.6896 6.39792C14.8602 6.4394 15.0506 6.70078 15.2499 7.13841C15.4211 7.51662 15.4104 7.95488 15.4104 8.22615C15.4104 8.22615 15.594 7.55447 15.5515 7.15756C15.5258 6.91925 15.2988 6.30635 14.817 6.31371H14.7777L14.5632 6.31055C14.2113 6.31055 13.8821 6.48306 13.8025 6.76722C13.5067 7.85744 13.8376 9.54341 14.3897 11.6439L14.2226 12.0505C13.8 13.0805 13.2721 14.1064 12.8075 15.0169C10.8897 18.7693 9.39802 20.7939 8.4034 20.9356L8.39914 20.8948C8.37757 20.4268 9.24178 19.2196 10.4128 18.2601C10.5348 18.1611 11.0555 17.6572 11.0555 17.6572C11.0555 17.6572 10.3521 18.0291 10.1942 18.1246C8.72713 19.0007 7.99677 19.8779 7.87776 20.4603C7.8425 20.6334 7.86579 20.8459 8.01834 20.9331L8.39379 21.1219C9.41487 21.633 10.67 20.2892 12.3396 17.3633C14.0385 16.8061 16.1579 16.2811 18.0879 15.9969C19.8153 16.9839 21.7968 17.4538 22.558 17.2507C22.7029 17.2125 22.8555 17.0989 22.9333 16.9941C22.9943 16.8976 23.0792 16.5115 23.0792 16.5115C23.0792 16.5115 22.9364 16.7074 22.8185 16.7648C22.3365 16.9923 20.8157 16.6127 19.2545 15.849C20.6042 15.7054 21.7291 15.6993 22.33 15.8915C23.0931 16.135 23.0931 16.3852 23.083 16.4361C23.0931 16.3941 23.1278 16.2265 23.1237 16.1553C23.1062 15.9722 23.0502 15.8089 22.9117 15.6734C22.6291 15.3953 21.9314 15.2546 20.9808 15.2422ZM12.4928 17.0043C12.7818 16.4907 13.0949 15.9314 13.4153 15.3281C14.0352 14.1556 14.4112 13.2505 14.7274 12.3988C15.2258 13.4014 15.9137 14.3543 16.8157 15.118C17.0169 15.2881 17.2307 15.4491 17.4507 15.6012C15.8126 15.9058 14.0917 16.3344 12.4928 17.0043Z" fill="#F87180"/>
<path d="M25.2503 0.684918C25.1648 0.483073 25.0231 0.312692 24.8443 0.19178C24.6658 0.0708678 24.4477 -0.000172253 24.2169 3.13669e-07H6.90269C6.74899 -5.72086e-05 6.60041 0.0314074 6.46592 0.0883545C6.26408 0.173833 6.0937 0.315453 5.97284 0.494289C5.85193 0.672781 5.78083 0.890906 5.78101 1.12174V21.8873C5.78095 22.041 5.81241 22.1896 5.86936 22.3241C5.95484 22.5259 6.09646 22.6963 6.27524 22.8171C6.45379 22.9381 6.67191 23.0091 6.90269 23.009H24.2169C24.3706 23.009 24.5192 22.9776 24.6537 22.9207C24.8555 22.8352 25.0259 22.6935 25.1467 22.5147C25.2677 22.3362 25.3388 22.1181 25.3386 21.8873V1.12174C25.3386 0.967986 25.3072 0.819348 25.2503 0.684918ZM24.4556 21.9878C24.4362 22.0337 24.4028 22.0741 24.3613 22.1021C24.3194 22.13 24.2719 22.1459 24.2168 22.1461H6.90263C6.8657 22.146 6.83274 22.1388 6.80203 22.1259C6.75612 22.1066 6.71574 22.0731 6.68773 22.0316C6.65977 21.9897 6.64395 21.9423 6.64378 21.8872V1.12163C6.64384 1.0847 6.65103 1.05174 6.66397 1.02096C6.6833 0.975061 6.71672 0.93468 6.75825 0.906724C6.80007 0.878768 6.84758 0.86295 6.90269 0.862777H24.2169C24.2538 0.862835 24.2868 0.870025 24.3175 0.882967C24.3634 0.902295 24.4038 0.935715 24.4318 0.977247C24.4597 1.01912 24.4756 1.06658 24.4757 1.12169V21.8872C24.4757 21.9242 24.4685 21.9571 24.4556 21.9878Z" fill="#F87180"/>
<path d="M18.6372 24.7346C18.6372 24.7716 18.63 24.8045 18.617 24.8352C18.5977 24.8811 18.5643 24.9215 18.5228 24.9495C18.4809 24.9774 18.4334 24.9933 18.3783 24.9935H1.12168C1.08476 24.9934 1.0518 24.9862 1.02108 24.9733C0.975176 24.954 0.934795 24.9206 0.906782 24.879C0.878826 24.8371 0.863007 24.7897 0.862835 24.7346V3.9691C0.862892 3.93217 0.870082 3.89921 0.883025 3.86843C0.902352 3.82253 0.935773 3.78215 0.977304 3.75419C1.01912 3.72624 1.06664 3.71042 1.12174 3.71025H4.65936V2.84741H1.12168C0.967985 2.84735 0.819405 2.87882 0.684918 2.93577C0.483073 3.02124 0.312691 3.16286 0.191837 3.3417C0.0709252 3.52014 -0.000172253 3.73826 3.13416e-07 3.9691V24.7346C-5.72089e-05 24.8883 0.0314074 25.037 0.0883545 25.1714C0.173833 25.3733 0.315452 25.5436 0.494232 25.6645C0.672781 25.7854 0.890905 25.8565 1.12168 25.8563H18.3784C18.5321 25.8564 18.6807 25.8249 18.8151 25.768C19.017 25.6825 19.1874 25.5409 19.3082 25.3621C19.4291 25.1835 19.5002 24.9654 19.5001 24.7346V24.1307H18.6372V24.7346Z" fill="#F87180"/>
</svg>
