<svg width="55" height="48" viewBox="0 0 55 48" fill="none" xmlns="http://www.w3.org/2000/svg">
<path d="M0.236109 13.2403C-0.651085 6.0176 5.268 -0.921609 12.4577 0.201902C24.5136 2.08583 25.1544 16.5188 27.3058 16.5188C29.2551 16.5188 30.6197 4.67053 40.0655 1.04288C48.5177 -2.20319 55.4329 7.84034 53.5152 16.6891C50.7989 29.2232 44.8577 33.2075 41.8015 36.9913C38.8368 40.6618 32.4228 44.3324 29.2144 46.0283C28.0053 46.6673 26.5836 46.7074 25.316 46.1938V46.1938C25.1456 46.1247 24.9989 46.0572 24.8393 45.966C22.5176 44.6401 2.63288 32.7525 0.236109 13.2403Z" fill="url(#paint0_linear)"/>
<path d="M0.236109 13.7403C-0.651085 6.5176 5.268 -0.421609 12.4577 0.701902C24.5136 2.58583 25.1544 17.0188 27.3058 17.0188C29.2551 17.0188 30.6197 5.17053 40.0655 1.54288C48.5177 -1.70319 55.4329 8.34034 53.5152 17.1891C50.7989 29.7232 44.8577 33.7075 41.8015 37.4913C38.8368 41.1618 32.4228 44.8324 29.2144 46.5283C28.0053 47.1673 26.5836 47.2074 25.316 46.6938V46.6938C25.1456 46.6247 24.9989 46.5572 24.8393 46.466C22.5176 45.1401 2.63288 33.2525 0.236109 13.7403Z" fill="url(#paint1_linear)" fill-opacity="0.6"/>
<g style="mix-blend-mode:overlay">
<path d="M0.236109 13.2403C-0.651085 6.0176 5.268 -0.921609 12.4577 0.201902C24.5136 2.08583 25.1544 16.5188 27.3058 16.5188C29.2551 16.5188 30.6197 4.67053 40.0655 1.04288C48.5177 -2.20319 55.4329 7.84034 53.5152 16.6891C50.7989 29.2232 44.8577 33.2075 41.8015 36.9913C38.8368 40.6618 32.4228 44.3324 29.2144 46.0283C28.0053 46.6673 26.5836 46.7074 25.316 46.1938V46.1938C25.1456 46.1247 24.9989 46.0572 24.8393 45.966C22.5176 44.6401 2.63288 32.7525 0.236109 13.2403Z" fill="url(#paint2_linear)"/>
</g>
<defs>
<linearGradient id="paint0_linear" x1="0" y1="0" x2="98.2808" y2="100.389" gradientUnits="userSpaceOnUse">
<stop stop-color="#FEE3F2"/>
<stop offset="1" stop-color="#FB6565"/>
</linearGradient>
<linearGradient id="paint1_linear" x1="0" y1="0.5" x2="46.4342" y2="54.7708" gradientUnits="userSpaceOnUse">
<stop stop-color="#3DFCE4"/>
<stop offset="1" stop-color="#F743A8"/>
</linearGradient>
<linearGradient id="paint2_linear" x1="0" y1="0" x2="46.4342" y2="54.2708" gradientUnits="userSpaceOnUse">
<stop stop-color="#FFC600"/>
<stop offset="1" stop-color="#FF0000"/>
</linearGradient>
</defs>
</svg>
