<svg width="55" height="48" viewBox="0 0 55 48" fill="none" xmlns="http://www.w3.org/2000/svg">
<path d="M0.236109 13.7403C-0.651085 6.5176 5.268 -0.421609 12.4577 0.701902C24.5136 2.58583 25.1544 17.0188 27.3058 17.0188C29.2551 17.0188 30.6197 5.17053 40.0655 1.54288C48.5177 -1.70319 55.4329 8.34034 53.5152 17.1891C50.7989 29.7232 44.8577 33.7075 41.8015 37.4913C38.8368 41.1618 32.4228 44.8324 29.2144 46.5283C28.0053 47.1673 26.5836 47.2074 25.316 46.6938V46.6938C25.1456 46.6247 24.9989 46.5572 24.8393 46.466C22.5176 45.1401 2.63288 33.2525 0.236109 13.7403Z" fill="url(#paint0_linear)"/>
<path d="M0.236109 13.7403C-0.651085 6.5176 5.268 -0.421609 12.4577 0.701902C24.5136 2.58583 25.1544 17.0188 27.3058 17.0188C29.2551 17.0188 30.6197 5.17053 40.0655 1.54288C48.5177 -1.70319 55.4329 8.34034 53.5152 17.1891C50.7989 29.7232 44.8577 33.7075 41.8015 37.4913C38.8368 41.1618 32.4228 44.8324 29.2144 46.5283C28.0053 47.1673 26.5836 47.2074 25.316 46.6938V46.6938C25.1456 46.6247 24.9989 46.5572 24.8393 46.466C22.5176 45.1401 2.63288 33.2525 0.236109 13.7403Z" fill="url(#paint1_linear)" fill-opacity="0.6"/>
<g style="mix-blend-mode:overlay">
<path d="M0.236109 13.7403C-0.651085 6.5176 5.268 -0.421609 12.4577 0.701902C24.5136 2.58583 25.1544 17.0188 27.3058 17.0188C29.2551 17.0188 30.6197 5.17053 40.0655 1.54288C48.5177 -1.70319 55.4329 8.34034 53.5152 17.1891C50.7989 29.7232 44.8577 33.7075 41.8015 37.4913C38.8368 41.1618 32.4228 44.8324 29.2144 46.5283C28.0053 47.1673 26.5836 47.2074 25.316 46.6938V46.6938C25.1456 46.6247 24.9989 46.5572 24.8393 46.466C22.5176 45.1401 2.63288 33.2525 0.236109 13.7403Z" fill="url(#paint2_linear)" fill-opacity="0.7"/>
</g>
<defs>
<linearGradient id="paint0_linear" x1="0" y1="0.5" x2="98.2808" y2="100.889" gradientUnits="userSpaceOnUse">
<stop stop-color="#FFDCEF"/>
<stop offset="1" stop-color="#FF0000"/>
</linearGradient>
<linearGradient id="paint1_linear" x1="0" y1="0.5" x2="46.4342" y2="54.7708" gradientUnits="userSpaceOnUse">
<stop stop-color="#81FFEF"/>
<stop offset="1" stop-color="#F067B4"/>
</linearGradient>
<linearGradient id="paint2_linear" x1="0" y1="0.5" x2="46.4342" y2="54.7708" gradientUnits="userSpaceOnUse">
<stop stop-color="#FFA8A8"/>
<stop offset="1" stop-color="#FCFF00"/>
</linearGradient>
</defs>
</svg>
